<?xml version="1.0" encoding="UTF-8"?>
<svg version="1.1" xmlns="http://www.w3.org/2000/svg" width="629" height="396">
<path d="M0 0 C1.6272796 -0.00346434 3.25455684 -0.00823407 4.88182926 -0.01418173 C9.31545489 -0.02661487 13.74888485 -0.02055669 18.18251085 -0.01122308 C22.97877304 -0.00440116 27.7750029 -0.01492932 32.57125854 -0.02316284 C41.95212891 -0.03646898 51.33292706 -0.03363637 60.71380019 -0.02492492 C68.34111735 -0.01813648 75.96841433 -0.01723667 83.59573364 -0.02049637 C84.68328699 -0.02095607 85.77084034 -0.02141577 86.89134985 -0.0218894 C89.10102614 -0.02284862 91.31070243 -0.02382126 93.52037871 -0.02480717 C114.21708285 -0.03335193 134.91374707 -0.02354129 155.61044466 -0.00740607 C173.35058661 0.00599627 191.09066966 0.00366792 208.83081055 -0.01016235 C229.45589765 -0.02623432 250.0809498 -0.03252804 270.70604229 -0.02332556 C272.90737088 -0.02236996 275.10869948 -0.02142685 277.31002808 -0.02049637 C278.39298772 -0.02003354 279.47594737 -0.01957072 280.59172398 -0.01909386 C288.20561793 -0.01650883 295.81948962 -0.02086447 303.43338013 -0.02793503 C312.71826301 -0.0363682 322.00306985 -0.03403174 331.28794408 -0.0180928 C336.02084107 -0.01023452 340.7536115 -0.00707662 345.48650742 -0.01704025 C349.82662814 -0.02603852 354.16650605 -0.0209706 358.50660503 -0.0051076 C360.06900701 -0.00178138 361.63142989 -0.00340464 363.19381821 -0.01073496 C383.8312645 -0.10006456 403.93029825 4.98570672 419.45288086 19.38095093 C419.45288086 20.04095093 419.45288086 20.70095093 419.45288086 21.38095093 C420.03424805 21.61942749 420.61561523 21.85790405 421.21459961 22.10360718 C425.69882916 24.66267012 428.42945894 29.29310331 431.45288086 33.38095093 C432.39260742 34.62231812 432.39260742 34.62231812 433.35131836 35.88876343 C438.37627416 43.064137 440.85951377 50.66532856 442.90057945 59.10004234 C443.24242992 60.51182523 443.59988245 61.92005145 443.98201942 63.32146645 C446.13315031 72.21721179 445.74908162 81.28441256 445.7434082 90.37460327 C445.74940032 92.29434468 445.75620743 94.21408369 445.76376343 96.13381958 C445.78136806 101.32863249 445.78611667 106.52337942 445.787395 111.71821928 C445.7888211 114.97314982 445.79309953 118.22806384 445.79838943 121.48299026 C445.81687638 132.86581731 445.82506234 144.24859765 445.82348633 155.63143921 C445.82228758 166.19569202 445.84334106 176.75973966 445.87497365 187.32394063 C445.90125118 196.42842315 445.91184873 205.53283918 445.91057551 214.63735926 C445.91006893 220.05938287 445.915581 225.48122428 445.93693161 230.90320969 C445.95650655 236.01366782 445.9563089 241.12377366 445.94189835 246.2342453 C445.93983228 248.09319965 445.94437677 249.95217719 445.95661926 251.81109238 C446.01579278 261.43174792 445.51644677 270.6328455 443.67251587 280.09423828 C443.51745335 280.89569853 443.36239083 281.69715878 443.20262945 282.52290571 C440.9526176 292.98089861 435.76042048 302.78692819 429.45288086 311.38095093 C428.79288086 311.38095093 428.13288086 311.38095093 427.45288086 311.38095093 C427.41163086 311.93782593 427.37038086 312.49470093 427.32788086 313.06845093 C426.2598619 315.89107246 424.59278528 317.14633891 422.21850586 318.93954468 C420.28523471 320.45880538 420.28523471 320.45880538 418.14038086 322.78720093 C404.03718173 336.39842799 385.28704862 340.84771784 366.31933594 340.78640747 C364.82082877 340.79257516 363.32232649 340.80004366 361.82383156 340.80868745 C357.73602375 340.82853385 353.64838979 340.83003523 349.56054187 340.82834983 C345.13872087 340.82979058 340.71696715 340.84846553 336.29518127 340.86494446 C327.6379394 340.89451451 318.98074102 340.90833272 310.32345563 340.9168469 C300.20850161 340.92742146 290.09360793 340.95397611 279.97868729 340.98119095 C261.89441597 341.0293294 243.81014561 341.06343354 225.72583008 341.08944702 C208.25346887 341.11459608 190.78115937 341.14889094 173.30883789 341.19393921 C172.23611771 341.19670344 171.16339753 341.19946767 170.05817068 341.20231566 C168.9871582 341.20507802 167.91614573 341.20784038 166.81267834 341.21068645 C164.65526518 341.2162498 162.49785202 341.22181013 160.34043884 341.2273674 C159.27598358 341.23011124 158.21152832 341.23285507 157.11481684 341.23568206 C140.37790668 341.27845633 123.64097814 341.31297198 106.90404743 341.34658252 C100.87913323 341.35876821 94.85422276 341.37207654 88.82931286 341.38622275 C79.24636564 341.4086734 69.66342551 341.42741833 60.0804587 341.43916169 C55.71348034 341.44456955 51.34652157 341.45145777 46.97955513 341.46315575 C36.90847588 341.48910436 26.83868948 341.47441436 16.76785183 341.39707696 C14.37807974 341.38042986 11.98832604 341.36989923 9.59851837 341.35971546 C5.54117915 341.33917144 1.48495825 341.29015693 -2.57186007 341.22259834 C-4.08419807 341.20081428 -5.59667421 341.18677954 -7.10916066 341.18173119 C-20.62310642 341.12433178 -33.82669479 338.50059466 -45.54711914 331.38095093 C-46.25868164 330.95169312 -46.97024414 330.5224353 -47.70336914 330.08016968 C-53.42484534 326.44546476 -58.86192752 322.29874071 -63.54711914 317.38095093 C-63.54711914 316.72095093 -63.54711914 316.06095093 -63.54711914 315.38095093 C-64.53711914 315.05095093 -65.52711914 314.72095093 -66.54711914 314.38095093 C-81.60406827 296.14492437 -85.01089845 276.14217724 -84.95117188 253.24301147 C-84.95688586 251.24884664 -84.96385406 249.25468507 -84.9719696 247.26052856 C-84.98980394 241.88224073 -84.98875086 236.50411692 -84.98302722 231.12580848 C-84.97992079 226.6183112 -84.98604402 222.11084476 -84.99206597 217.60335189 C-85.0060781 206.9599372 -85.00457795 196.31660283 -84.99316406 185.67318726 C-84.98169011 174.73274375 -84.99575408 163.79254559 -85.02256054 152.85213441 C-85.04479127 143.42234766 -85.05133824 133.99263752 -85.04548413 124.56282645 C-85.04213047 118.94702862 -85.04442283 113.33138794 -85.06173515 107.71561241 C-85.07731989 102.43027361 -85.07312213 97.14529525 -85.05443001 91.85997009 C-85.05077561 89.93364335 -85.05375917 88.00728921 -85.0643158 86.08098793 C-85.13934059 71.24443025 -84.05656761 56.25243978 -76.79711914 42.94345093 C-76.45422852 42.28860718 -76.11133789 41.63376343 -75.75805664 40.95907593 C-72.65756748 35.22203941 -68.96198422 30.18536292 -64.54711914 25.38095093 C-63.91032227 24.67583374 -63.27352539 23.97071655 -62.61743164 23.24423218 C-55.6861166 15.93712295 -47.93008826 10.77139172 -38.79711914 6.63095093 C-38.19061523 6.34921021 -37.58411133 6.06746948 -36.95922852 5.77719116 C-25.06030921 0.64417384 -12.76297145 -0.05988051 0 0 Z " fill="#FEFEFE" transform="translate(128.547119140625,22.619049072265625)"/>
<path d="M0 0 C6.43709545 -0.07688808 12.8740699 -0.12894632 19.31152344 -0.16479492 C21.49548772 -0.17976019 23.67942259 -0.20013972 25.86328125 -0.22631836 C49.182571 -0.49859029 71.0830053 2.38423955 89 19 C89 19.66 89 20.32 89 21 C89.58136719 21.23847656 90.16273438 21.47695313 90.76171875 21.72265625 C95.2459483 24.28171919 97.97657808 28.91215238 101 33 C101.62648438 33.82757813 102.25296875 34.65515625 102.8984375 35.5078125 C107.9233933 42.68318607 110.40663291 50.28437763 112.44769859 58.71909142 C112.78954906 60.1308743 113.1470016 61.53910052 113.52913857 62.94051552 C115.68026945 71.83626086 115.29620076 80.90346164 115.29052734 89.99365234 C115.29651946 91.91339375 115.30332657 93.83313276 115.31088257 95.75286865 C115.3284872 100.94768156 115.33323581 106.14242849 115.33451414 111.33726835 C115.33594024 114.59219889 115.34021867 117.84711292 115.34550858 121.10203934 C115.36399552 132.48486638 115.37218148 143.86764672 115.37060547 155.25048828 C115.36940672 165.8147411 115.3904602 176.37878874 115.4220928 186.94298971 C115.44837032 196.04747223 115.45896787 205.15188825 115.45769465 214.25640833 C115.45718808 219.67843194 115.46270014 225.10027335 115.48405075 230.52225876 C115.50362569 235.63271689 115.50342804 240.74282274 115.48901749 245.85329437 C115.48695143 247.71224873 115.49149591 249.57122626 115.5037384 251.43014145 C115.56291192 261.05079699 115.06356591 270.25189457 113.21963501 279.71328735 C113.06457249 280.5147476 112.90950997 281.31620785 112.74974859 282.14195478 C110.49973674 292.59994769 105.30753962 302.40597726 99 311 C98.34 311 97.68 311 97 311 C96.95875 311.556875 96.9175 312.11375 96.875 312.6875 C95.80698104 315.51012153 94.13990442 316.76538798 91.765625 318.55859375 C89.83235385 320.07785446 89.83235385 320.07785446 87.6875 322.40625 C70.62277863 338.87569039 49.58405818 340.45915814 27.25 340.1875 C25.08855098 340.17242691 22.92709181 340.15874315 20.765625 340.14648438 C15.51019226 340.11368487 10.25514441 340.06369376 5 340 C8.10711043 338.3774344 10.80605278 337.55801747 14.25 336.875 C32.12829522 332.50911594 48.14107978 321.15609127 58.12890625 305.70703125 C68.51892337 288.50976153 70.30215762 272.55028218 70.29052734 252.89550781 C70.29651979 250.86898554 70.30332697 248.84246554 70.31088257 246.81594849 C70.32847635 241.3364163 70.33323513 235.85694666 70.33451414 230.37738895 C70.33594 226.94710968 70.34021781 223.5168461 70.34550858 220.08657074 C70.3639866 208.10002134 70.37218194 196.11351629 70.37060547 184.12695312 C70.36940453 172.9848908 70.39050348 161.84302233 70.4220928 150.70100904 C70.44831259 141.1082663 70.45897038 131.51558667 70.45769465 121.92280841 C70.45718672 116.20529778 70.46277636 110.4879596 70.48405075 104.77048492 C70.50352956 99.38917841 70.50349201 94.00820718 70.48901749 88.62688828 C70.48694025 86.6626295 70.49156478 84.69834919 70.5037384 82.73412704 C70.63961937 59.27255876 64.68466615 40.23346398 48.1875 22.875 C35.78729894 10.87941203 21.57583744 5.33569484 5 2 C4.00871094 1.80019531 3.01742188 1.60039062 1.99609375 1.39453125 C1.33738281 1.26433594 0.67867188 1.13414063 0 1 C0 0.67 0 0.34 0 0 Z " fill="#F62A6B" transform="translate(459,23)"/>
<path d="M0 0 C1.95962506 0.01508402 3.91926143 0.0287658 5.87890625 0.04101562 C10.62788924 0.07370376 15.37631593 0.12527762 20.125 0.1875 C17.36375793 2.94874207 14.25390896 3.23823728 10.5625 4.0625 C-7.12776454 8.28566607 -23.07475118 18.01525357 -33.21484375 33.453125 C-44.74518642 52.44427763 -46.02685664 68.11411938 -46.02026367 89.78881836 C-46.02326003 91.76109378 -46.02666366 93.73336862 -46.03044128 95.7056427 C-46.03923501 101.0362087 -46.04161739 106.36675863 -46.04225707 111.69733119 C-46.04296998 115.03310674 -46.04510882 118.36887825 -46.04775429 121.70465279 C-46.05699103 133.35705956 -46.0610911 145.00945492 -46.06030273 156.66186523 C-46.05970177 167.50059518 -46.07026162 178.3392754 -46.0860464 189.17799276 C-46.09914365 198.50571581 -46.10448574 207.83342264 -46.10384732 217.16115481 C-46.10359307 222.7225813 -46.10640468 228.2839635 -46.11702538 233.84538078 C-46.12674369 239.07639606 -46.12676003 244.30732502 -46.11950874 249.53834343 C-46.11846767 251.45064419 -46.12079721 253.36295044 -46.1268692 255.27524185 C-46.19288745 277.51868429 -43.08565839 298.47253067 -26.92578125 315.1484375 C-26.24902344 315.82132812 -25.57226562 316.49421875 -24.875 317.1875 C-24.070625 318.074375 -23.26625 318.96125 -22.4375 319.875 C-11.1200738 330.08828706 3.02952522 336.9544416 18.125 339.1875 C18.125 339.5175 18.125 339.8475 18.125 340.1875 C12.00935018 340.31266286 5.89447289 340.40256505 -0.22216797 340.4621582 C-2.29554254 340.48704384 -4.36883184 340.52096525 -6.44189453 340.56469727 C-22.44158506 340.8933521 -36.83478943 339.71631212 -50.875 331.1875 C-51.5865625 330.75824219 -52.298125 330.32898438 -53.03125 329.88671875 C-58.7527262 326.25201384 -64.18980838 322.10528978 -68.875 317.1875 C-68.875 316.5275 -68.875 315.8675 -68.875 315.1875 C-69.865 314.8575 -70.855 314.5275 -71.875 314.1875 C-86.93194913 295.95147344 -90.33877931 275.94872631 -90.27905273 253.04956055 C-90.28476671 251.05539571 -90.29173492 249.06123414 -90.29985046 247.06707764 C-90.3176848 241.6887898 -90.31663172 236.31066599 -90.31090808 230.93235755 C-90.30780165 226.42486027 -90.31392487 221.91739383 -90.31994683 217.40990096 C-90.33395896 206.76648627 -90.33245881 196.1231519 -90.32104492 185.47973633 C-90.30957097 174.53929282 -90.32363494 163.59909467 -90.3504414 152.65868348 C-90.37267213 143.22889673 -90.3792191 133.79918659 -90.37336498 124.36937553 C-90.37001133 118.75357769 -90.37230369 113.13793701 -90.38961601 107.52216148 C-90.40520075 102.23682268 -90.40100299 96.95184432 -90.38231087 91.66651917 C-90.37865647 89.74019243 -90.38164003 87.81383828 -90.39219666 85.887537 C-90.46722145 71.05097932 -89.38444847 56.05898885 -82.125 42.75 C-81.78210938 42.09515625 -81.43921875 41.4403125 -81.0859375 40.765625 C-77.98544834 35.02858848 -74.28986508 29.991912 -69.875 25.1875 C-69.23820312 24.48238281 -68.60140625 23.77726562 -67.9453125 23.05078125 C-61.01399746 15.74367202 -53.25796912 10.5779408 -44.125 6.4375 C-43.51849609 6.15575928 -42.91199219 5.87401855 -42.28710938 5.58374023 C-28.53671973 -0.34797394 -14.66895077 -0.19809438 0 0 Z " fill="#02DAFD" transform="translate(133.875,22.8125)"/>
<path d="M0 0 C8.58 0 17.16 0 26 0 C26 22.11 26 44.22 26 67 C48.11 67 70.22 67 93 67 C93 75.58 93 84.16 93 93 C71.22 93 49.44 93 27 93 C27 114.78 27 136.56 27 159 C18.09 159 9.18 159 0 159 C0 137.55 0 116.1 0 94 C-21.78 94 -43.56 94 -66 94 C-66 84.76 -66 75.52 -66 66 C-44.22 66 -22.44 66 0 66 C0 44.22 0 22.44 0 0 Z " fill="#121212" transform="translate(292,114)"/>
<path d="M0 0 C0.33 0 0.66 0 1 0 C1 7.26 1 14.52 1 22 C0.34 22 -0.32 22 -1 22 C-0.93941406 22.81678223 -0.87882812 23.63356445 -0.81640625 24.47509766 C-0.5420111 28.19156892 -0.27097286 31.90827771 0 35.625 C0.14308594 37.55279297 0.14308594 37.55279297 0.2890625 39.51953125 C0.42441406 41.38544922 0.42441406 41.38544922 0.5625 43.2890625 C0.64628906 44.43068848 0.73007812 45.57231445 0.81640625 46.74853516 C1.30441236 55.39117528 1.30441236 55.39117528 0 58 C0.09259072 59.33808524 0.2507196 60.67178382 0.4375 62 C1.02677652 67.1963475 1.11727054 72.33944762 1.125 77.5625 C1.12943115 78.37267578 1.1338623 79.18285156 1.13842773 80.01757812 C1.12411794 85.87588206 1.12411794 85.87588206 0 87 C-0.10114479 89.83758847 -0.13968937 92.6503081 -0.1328125 95.48828125 C-0.13376923 96.34302536 -0.13472595 97.19776947 -0.13571167 98.07841492 C-0.13639371 99.89171421 -0.13453775 101.70501592 -0.13037109 103.51831055 C-0.12504275 106.29025806 -0.13030507 109.06204207 -0.13671875 111.83398438 C-0.13605759 113.59375036 -0.13477564 115.35351624 -0.1328125 117.11328125 C-0.13483673 117.94257645 -0.13686096 118.77187164 -0.13894653 119.626297 C-0.13579437 120.40357651 -0.13264221 121.18085602 -0.12939453 121.98168945 C-0.12859894 122.66262161 -0.12780334 123.34355377 -0.12698364 124.04512024 C0.00858118 126.13210506 0.47559327 127.97957677 1 130 C1.07096813 131.9753979 1.08413781 133.95313364 1.0625 135.9296875 C1.05404053 137.17500244 1.04558105 138.42031738 1.03686523 139.70336914 C1.03065155 140.37949249 1.02443787 141.05561584 1.01803589 141.75222778 C0.883189 157.62331831 1.09146992 173.48922766 1.37231445 189.35772705 C1.41585683 191.8324262 1.45751618 194.30715919 1.49731445 196.78192139 C1.55423395 200.28311452 1.61783947 203.78411923 1.68359375 207.28515625 C1.70030624 208.35340134 1.71701874 209.42164642 1.73423767 210.52226257 C1.75418289 211.49468399 1.77412811 212.46710541 1.79467773 213.46899414 C1.81799416 214.75079308 1.81799416 214.75079308 1.84178162 216.05848694 C1.78957644 218.00535548 1.78957644 218.00535548 3 219 C3.07226502 220.85287502 3.0838122 222.70833878 3.0625 224.5625 C3.05347656 225.57441406 3.04445313 226.58632813 3.03515625 227.62890625 C3.01775391 228.80259766 3.01775391 228.80259766 3 230 C-3.72569324 223.27430676 -2.38556273 208.30406229 -2.39547729 199.348526 C-2.38805283 197.47738527 -2.38032181 195.60624574 -2.37231445 193.73510742 C-2.37474727 191.7279644 -2.37847132 189.72082259 -2.38337708 187.71368408 C-2.3927196 182.3028586 -2.38341846 176.89221611 -2.37004495 171.48140502 C-2.35866527 165.80151224 -2.36284277 160.1216276 -2.36479187 154.44172668 C-2.36567243 144.91204871 -2.3546413 135.3824422 -2.33618164 125.8527832 C-2.31498732 114.84862354 -2.31151205 103.84456825 -2.3177436 92.84039229 C-2.32344405 82.22893666 -2.3177855 71.61751763 -2.30657005 61.00606728 C-2.30193621 56.50031161 -2.30104491 51.99457842 -2.3031559 47.48882103 C-2.30504387 42.18388995 -2.29689581 36.87906467 -2.2810955 31.57415771 C-2.27686547 29.631574 -2.27599345 27.68897952 -2.27878571 25.7463932 C-2.28202671 23.08770587 -2.2728779 20.42933089 -2.26069641 17.77067566 C-2.26447573 17.00879651 -2.26825506 16.24691736 -2.27214891 15.46195096 C-2.22891425 10.09944668 -1.33822047 5.18750456 0 0 Z " fill="#3EDBF1" transform="translate(46,82)"/>
<path d="M0 0 C0.33 0 0.66 0 1 0 C1.02689216 1.47906892 1.04634621 2.95827483 1.0625 4.4375 C1.07410156 5.26121094 1.08570312 6.08492188 1.09765625 6.93359375 C1 9 1 9 0 10 C-0.10676618 12.75232677 -0.14778354 15.47986294 -0.14717102 18.23297119 C-0.15268605 19.54356526 -0.15268605 19.54356526 -0.1583125 20.88063598 C-0.16939663 23.83221364 -0.17320127 26.78375615 -0.17700195 29.73535156 C-0.18326342 31.84245924 -0.18990993 33.9495658 -0.19691467 36.05667114 C-0.21436273 41.8010994 -0.22488839 47.54551931 -0.2331202 53.28996754 C-0.23826599 56.87997648 -0.24434214 60.46998282 -0.25063133 64.05998993 C-0.26970043 75.29455804 -0.28392367 86.52911953 -0.2922433 97.76370072 C-0.30200039 110.72585419 -0.3282728 123.6878362 -0.36874419 136.64992929 C-0.39894949 146.66875484 -0.41371667 156.6875314 -0.41702431 166.70640159 C-0.41937124 172.68893003 -0.42828415 178.67127566 -0.45348549 184.65375519 C-0.47684596 190.29098608 -0.48096731 195.9279149 -0.47072411 201.56518173 C-0.47023045 203.62703076 -0.47650027 205.68889505 -0.49028015 207.75069809 C-0.55388614 217.83789658 -0.50681752 226.86087991 3.04386616 236.41637802 C3.97752504 238.93926916 4.54255063 241.35368266 5 244 C-5.14782878 232.88571134 -3.28717535 213.20693613 -3.24291992 199.26928711 C-3.24399461 197.29524167 -3.24593605 195.32119654 -3.24867249 193.34715271 C-3.2534939 188.01668466 -3.24589907 182.68630114 -3.23571944 177.35584331 C-3.22689354 171.76095737 -3.22869727 166.16607373 -3.2290802 160.57118225 C-3.22814555 151.17919513 -3.21948839 141.78724043 -3.20581055 132.39526367 C-3.19008263 121.5559374 -3.18481274 110.7166466 -3.1855461 99.87730974 C-3.18622297 88.30807641 -3.1792746 76.73885665 -3.1700995 65.16962743 C-3.1679742 61.84835905 -3.16725914 58.52709289 -3.16686058 55.2058239 C-3.16585168 49.9764547 -3.15971058 44.74711496 -3.14969444 39.51775551 C-3.14678856 37.60503698 -3.14554017 35.69231507 -3.14612198 33.77959442 C-3.15103676 7.77255733 -3.15103676 7.77255733 0 0 Z " fill="#E3FEFE" transform="translate(90,76)"/>
<path d="M0 0 C0.66 0 1.32 0 2 0 C1.54177532 3.46941546 1.10868317 6.67395049 0 10 C-1.6166374 20.28346328 -1.13368833 30.87562478 -1.11352539 41.25073242 C-1.11324295 43.29173786 -1.11340235 45.3327434 -1.1139679 47.37374878 C-1.11425367 52.88739335 -1.10839257 58.40101596 -1.10139394 63.91465545 C-1.0951237 69.68686164 -1.0945537 75.45906839 -1.09336853 81.23127747 C-1.09026601 92.14965868 -1.08206721 103.06802983 -1.07201904 113.98640662 C-1.06082433 126.42173211 -1.055339 138.85705809 -1.05032361 151.29238737 C-1.03988367 176.86159715 -1.02230519 202.43079801 -1 228 C-1.33 226.68 -1.66 225.36 -2 224 C-2.66 224 -3.32 224 -4 224 C-4.07010189 196.90523996 -4.12299401 169.81049353 -4.15543652 142.71566105 C-4.17090096 130.13487274 -4.1919825 117.5541408 -4.22631836 104.97338867 C-4.25623354 94.00715342 -4.27557808 83.040959 -4.28226548 72.07468408 C-4.28617412 66.26891076 -4.29535138 60.46325425 -4.31719017 54.65751839 C-4.33758867 49.19025912 -4.34382694 43.72316452 -4.33932304 38.25587082 C-4.34014673 36.25200823 -4.34609224 34.24814 -4.35761642 32.24431038 C-4.37261315 29.50158626 -4.36892749 26.75947823 -4.36076355 24.01673889 C-4.36950207 23.22974627 -4.3782406 22.44275365 -4.38724393 21.63191277 C-4.34762859 16.68459893 -3.44854809 12.63435995 -1.71070558 7.99965566 C-0.77901459 5.37823095 -0.35294667 2.752984 0 0 Z " fill="#49D9EF" transform="translate(89,72)"/>
<path d="M0 0 C2 1 2 1 3.25390625 4.46484375 C3.69843105 5.95326763 4.13424171 7.44431455 4.5625 8.9375 C4.78357422 9.66001953 5.00464844 10.38253906 5.23242188 11.12695312 C8.72038072 23.06609926 8.14895888 35.38556829 8.14526367 47.703125 C8.14825926 49.69820213 8.15166271 51.69327869 8.15544128 53.68835449 C8.16424245 59.08495898 8.16661769 64.4815476 8.16725707 69.87815857 C8.16796951 73.25361291 8.17010746 76.62906326 8.17275429 80.0045166 C8.18199321 91.79077408 8.18609079 103.57702027 8.18530273 115.36328125 C8.18470158 126.33438254 8.19526451 137.30543473 8.2110464 148.27652359 C8.2241338 157.71204992 8.22948616 167.14756022 8.22884732 176.58309555 C8.22859279 182.21154256 8.23141964 187.83994585 8.24202538 193.46838379 C8.25172713 198.76093747 8.25177128 204.05340578 8.24450874 209.34596252 C8.24346565 211.28329086 8.24580936 213.22062458 8.2518692 215.15794373 C8.30457573 233.18118876 8.30457573 233.18118876 6 242 C3.56230782 238.34346173 3.76055561 236.30999899 4 232 C4.33 231.67 4.66 231.34 5 231 C5.10006151 228.31345679 5.1343998 225.65255214 5.12698364 222.96548462 C5.12854363 222.11328445 5.13010362 221.26108428 5.13171089 220.38305986 C5.13572467 217.50486778 5.13252976 214.62672771 5.12939453 211.74853516 C5.13074842 209.69416777 5.13252829 207.63980064 5.13470459 205.58543396 C5.13928092 199.98835679 5.1374884 194.39129796 5.1343255 188.79422045 C5.13180225 182.94861837 5.13413941 177.10301791 5.13571167 171.25741577 C5.13753375 161.43658159 5.13512634 151.61575492 5.13037109 141.79492188 C5.12493143 130.42909761 5.12668883 119.06329128 5.1321975 107.69746745 C5.13673113 97.95480432 5.13737785 88.21214661 5.13475883 78.46948278 C5.13319705 72.64384312 5.13299954 66.8182119 5.13629532 60.99257278 C5.13917754 55.51468374 5.13719181 50.03681788 5.13140106 44.55893135 C5.13007523 42.54449439 5.1304646 40.53005548 5.13266373 38.51561928 C5.1353822 35.77321378 5.13198542 33.03088334 5.12698364 30.28848267 C5.12921436 29.48469512 5.13144509 28.68090757 5.13374341 27.85276282 C5.12230707 24.63648241 5.02465598 22.07396793 4 19 C3.96045766 16.66700175 3.95598268 14.33291811 4 12 C3.34 12 2.68 12 2 12 C1.34 8.04 0.68 4.08 0 0 Z " fill="#E72D6A" transform="translate(565,66)"/>
<path d="M0 0 C6.43709545 -0.07688808 12.8740699 -0.12894632 19.31152344 -0.16479492 C21.49548772 -0.17976019 23.67942259 -0.20013972 25.86328125 -0.22631836 C37.94985009 -0.36743901 49.30478441 -0.44487145 61 3 C61 3.33 61 3.66 61 4 C60.31421875 3.9278125 59.6284375 3.855625 58.921875 3.78125 C45.64241826 2.60376122 32.31875164 2.90998972 19 3 C19.60835693 3.19698486 20.21671387 3.39396973 20.84350586 3.59692383 C21.64667236 3.86013428 22.44983887 4.12334473 23.27734375 4.39453125 C24.07132568 4.65339111 24.86530762 4.91225098 25.68334961 5.17895508 C28.5919473 6.20979226 31.28554319 7.53836941 34 9 C34 9.66 34 10.32 34 11 C33.30648437 10.72027344 32.61296875 10.44054688 31.8984375 10.15234375 C21.29978058 5.93859201 11.21994528 2.93284772 0 1 C0 0.67 0 0.34 0 0 Z " fill="#E6779C" transform="translate(459,23)"/>
<path d="M0 0 C1.97330276 0.01004885 3.94661046 0.01917133 5.91992188 0.02734375 C10.71757165 0.04920866 15.51498036 0.08363384 20.3125 0.125 C17.68798383 2.74951617 15.8247172 2.7082868 12.1875 3.25 C11.09179688 3.41757812 9.99609375 3.58515625 8.8671875 3.7578125 C8.02414063 3.87898438 7.18109375 4.00015625 6.3125 4.125 C6.3125 3.465 6.3125 2.805 6.3125 2.125 C2.34297101 2.24298944 -1.62630781 2.36721799 -5.59545898 2.49731445 C-6.94664147 2.54071223 -8.29788053 2.5823837 -9.64916992 2.62231445 C-11.58786701 2.67989952 -13.52636276 2.74414298 -15.46484375 2.80859375 C-16.63265381 2.84525146 -17.80046387 2.88190918 -19.00366211 2.91967773 C-21.60529795 2.82576188 -21.60529795 2.82576188 -22.6875 4.125 C-24.20678038 4.19679964 -25.72917482 4.20892007 -27.25 4.1875 C-28.07628906 4.17847656 -28.90257813 4.16945313 -29.75390625 4.16015625 C-30.39199219 4.14855469 -31.03007813 4.13695312 -31.6875 4.125 C-31.6875 4.785 -31.6875 5.445 -31.6875 6.125 C-33.26836048 6.49004603 -34.85233907 6.84160506 -36.4375 7.1875 C-37.31921875 7.38472656 -38.2009375 7.58195312 -39.109375 7.78515625 C-41.67429028 8.12325872 -43.25841639 7.93658635 -45.6875 7.125 C-43.7554106 6.32021872 -41.81642419 5.53199391 -39.875 4.75 C-38.79605469 4.30914063 -37.71710938 3.86828125 -36.60546875 3.4140625 C-24.68810175 -0.75120071 -12.44633822 -0.11055995 0 0 Z " fill="#65DEEE" transform="translate(133.6875,22.875)"/>
<path d="M0 0 C-0.33 0.66 -0.66 1.32 -1 2 C8.57 2 18.14 2 28 2 C28 2.66 28 3.32 28 4 C12.82 4 -2.36 4 -18 4 C-14.51232612 2.25616306 -11.62049949 1.2557769 -7.875 0.3125 C-6.82054687 0.04050781 -5.76609375 -0.23148437 -4.6796875 -0.51171875 C-2 -1 -2 -1 0 0 Z " fill="#D34574" transform="translate(482,359)"/>
<path d="M0 0 C0.33 0 0.66 0 1 0 C1 7.26 1 14.52 1 22 C0.34 22 -0.32 22 -1 22 C-0.9278125 22.89460938 -0.855625 23.78921875 -0.78125 24.7109375 C-0.04822105 34.26067578 0.64734461 43.52776847 -1 53 C-1.33 53 -1.66 53 -2 53 C-2.0497018 46.89853075 -2.08586193 40.79718123 -2.10986328 34.69555664 C-2.11987668 32.62294459 -2.13349135 30.55034651 -2.15087891 28.4777832 C-2.17533313 25.48645566 -2.18653 22.49531606 -2.1953125 19.50390625 C-2.21079636 18.12991417 -2.21079636 18.12991417 -2.22659302 16.72816467 C-2.22760095 10.85499845 -1.46289752 5.69213932 0 0 Z " fill="#5BE1F1" transform="translate(46,82)"/>
<path d="M0 0 C5.58131033 0.48092924 10.60589994 1.43080726 16 3 C23.13977615 4.11688271 30.2850013 4.32067862 37.5 4.5625 C38.70398438 4.60568359 39.90796875 4.64886719 41.1484375 4.69335938 C44.09886193 4.79873168 47.04936071 4.90085903 50 5 C50.33 4.34 50.66 3.68 51 3 C55.95 3.99 55.95 3.99 61 5 C61 5.33 61 5.66 61 6 C54.88435018 6.12516286 48.76947289 6.21506505 42.65283203 6.2746582 C40.57945746 6.29954384 38.50616816 6.33346525 36.43310547 6.37719727 C23.35047256 6.64593187 12.20381422 5.94192075 0 1 C0 0.67 0 0.34 0 0 Z " fill="#3FC7DB" transform="translate(91,357)"/>
<path d="M0 0 C0.66 0 1.32 0 2 0 C2 0.66 2 1.32 2 2 C-2.38461538 5 -2.38461538 5 -5 5 C-5 5.66 -5 6.32 -5 7 C-3.68 7.33 -2.36 7.66 -1 8 C-1.66 9.32 -2.32 10.64 -3 12 C-7.29 12 -11.58 12 -16 12 C-15 8 -15 8 -11.875 6.11328125 C-10.59008582 5.49869936 -9.29801499 4.89890638 -8 4.3125 C-3.70874149 2.57488034 -3.70874149 2.57488034 0 0 Z " fill="#EC326E" transform="translate(497,349)"/>
<path d="M0 0 C0.33 0 0.66 0 1 0 C1.01981934 0.63389648 1.03963867 1.26779297 1.06005859 1.92089844 C0.1324611 19.88798732 0.1324611 19.88798732 5 36 C5.07226502 37.85287502 5.0838122 39.70833878 5.0625 41.5625 C5.05347656 42.57441406 5.04445313 43.58632813 5.03515625 44.62890625 C5.02355469 45.41136719 5.01195312 46.19382812 5 47 C-0.44908371 41.55091629 -0.25735221 30.30618166 -0.29296875 22.8515625 C-0.2841849 20.10863304 -0.23882339 17.36741232 -0.1875 14.625 C-0.17239782 13.19532689 -0.15871937 11.76563802 -0.14648438 10.3359375 C-0.11398113 6.89028802 -0.06251852 3.44525151 0 0 Z " fill="#73E7F6" transform="translate(44,265)"/>
<path d="M0 0 C8.89109963 1.77821993 16.81963574 6.68653045 24 12 C23.01 12.66 22.02 13.32 21 14 C21 13.34 21 12.68 21 12 C19.68 12 18.36 12 17 12 C17 11.34 17 10.68 17 10 C16.01 10.33 15.02 10.66 14 11 C11.8125 10.0625 11.8125 10.0625 10 9 C10 7.68 10 6.36 10 5 C8.906875 4.9175 7.81375 4.835 6.6875 4.75 C3 4 3 4 1.0625 1.9375 C0.711875 1.298125 0.36125 0.65875 0 0 Z " fill="#E95686" transform="translate(520,27)"/>
<path d="M0 0 C0.33 0 0.66 0 1 0 C1.22866648 4.12413106 1.42916866 8.24918975 1.625 12.375 C1.68945312 13.53128906 1.75390625 14.68757813 1.8203125 15.87890625 C2.13807004 22.90929193 1.79825688 29.18298934 0 36 C-2.43769218 32.34346173 -2.23944439 30.30999899 -2 26 C-1.67 25.67 -1.34 25.34 -1 25 C-0.84213692 23.14825294 -0.74892644 21.2909089 -0.68359375 19.43359375 C-0.62075195 17.7465332 -0.62075195 17.7465332 -0.55664062 16.02539062 C-0.51732422 14.84138672 -0.47800781 13.65738281 -0.4375 12.4375 C-0.39431641 11.24962891 -0.35113281 10.06175781 -0.30664062 8.83789062 C-0.20016454 5.89205216 -0.09815159 2.9461257 0 0 Z " fill="#EA4A7E" transform="translate(571,272)"/>
<path d="M0 0 C2 1 2 1 3.25390625 4.46484375 C3.70127011 5.95241678 4.13681533 7.44357882 4.5625 8.9375 C4.78429932 9.70715088 5.00609863 10.47680176 5.23461914 11.26977539 C8.445361 22.78128264 8.445361 22.78128264 8 28 C7.34 28.66 6.68 29.32 6 30 C4.77100654 23.93184478 3.72439786 18.20104812 4 12 C3.34 12 2.68 12 2 12 C1.34 8.04 0.68 4.08 0 0 Z " fill="#E65F8C" transform="translate(565,66)"/>
<path d="M0 0 C1.31625194 2.63250388 0.74813658 3.80179056 0.0625 6.625 C-0.13214844 7.44226563 -0.32679687 8.25953125 -0.52734375 9.1015625 C-0.76130859 10.04128906 -0.76130859 10.04128906 -1 11 C-1.66 11 -2.32 11 -3 11 C-3.12117188 11.56589844 -3.24234375 12.13179687 -3.3671875 12.71484375 C-3.53476562 13.44832031 -3.70234375 14.18179688 -3.875 14.9375 C-4.03742187 15.66839844 -4.19984375 16.39929688 -4.3671875 17.15234375 C-5 19 -5 19 -7 20 C-6.70544888 12.34167083 -3.62827658 6.65738822 0 0 Z " fill="#4ADDF1" transform="translate(54,62)"/>
<path d="M0 0 C5.58131033 0.48092924 10.60589994 1.43080726 16 3 C18.66412119 3.42362351 21.3155937 3.71743092 24 4 C20.50006188 6.33329208 18.76127426 6.10206389 14.6953125 5.55859375 C9.65092745 4.51316323 4.83376327 2.75847564 0 1 C0 0.67 0 0.34 0 0 Z " fill="#51DDF2" transform="translate(91,357)"/>
<path d="M0 0 C-1 1 -1 1 -3.06640625 1.09765625 C-3.89011719 1.08605469 -4.71382812 1.07445312 -5.5625 1.0625 C-6.38878906 1.05347656 -7.21507813 1.04445313 -8.06640625 1.03515625 C-8.70449219 1.02355469 -9.34257813 1.01195312 -10 1 C-10 1.66 -10 2.32 -10 3 C-11.58086048 3.36504603 -13.16483907 3.71660506 -14.75 4.0625 C-15.63171875 4.25972656 -16.5134375 4.45695312 -17.421875 4.66015625 C-19.98679028 4.99825872 -21.57091639 4.81158635 -24 4 C-16.36036139 0.5052717 -8.38169047 -2.50685263 0 0 Z " fill="#46DCEF" transform="translate(112,26)"/>
<path d="M0 0 C4.75 0.875 4.75 0.875 7 2 C7 2.66 7 3.32 7 4 C7.721875 4.061875 8.44375 4.12375 9.1875 4.1875 C12.84657625 5.24456647 14.49211602 7.20550071 17 10 C10.26594038 8.6824666 5.31670278 5.26833885 0 1 C0 0.67 0 0.34 0 0 Z " fill="#59DEF0" transform="translate(74,347)"/>
<path d="M0 0 C0.66 0 1.32 0 2 0 C2 0.99 2 1.98 2 3 C2.66 3 3.32 3 4 3 C4.66 5.64 5.32 8.28 6 11 C6.66 11 7.32 11 8 11 C8.33 12.65 8.66 14.3 9 16 C8.34 16.33 7.68 16.66 7 17 C0 4.73664122 0 4.73664122 0 0 Z " fill="#54DEEF" transform="translate(49,312)"/>
<path d="M0 0 C0 4.70031035 -2.89257072 7.63058605 -6 11 C-8.875 12.5 -8.875 12.5 -11 13 C-9.46356148 9.31930113 -7.21849055 7.01224796 -4.375 4.25 C-3.55773437 3.45078125 -2.74046875 2.6515625 -1.8984375 1.828125 C-0.95871094 0.92320313 -0.95871094 0.92320313 0 0 Z " fill="#54DEF1" transform="translate(72,40)"/>
<path d="M0 0 C1.98 0.66 3.96 1.32 6 2 C6 2.66 6 3.32 6 4 C-2.58 4 -11.16 4 -20 4 C-20 3.67 -20 3.34 -20 3 C-9.605 2.505 -9.605 2.505 1 2 C0.67 1.34 0.34 0.68 0 0 Z " fill="#1CD3F0" transform="translate(135,358)"/>
<path d="M0 0 C5.56890517 0.47986031 10.67067568 1.29915181 16 3 C16 3.66 16 4.32 16 5 C10.13190493 4.47606294 5.45126259 3.23891142 0 1 C0 0.67 0 0.34 0 0 Z " fill="#C9F9FE" transform="translate(134,357)"/>
<path d="M0 0 C1 3 1 3 -0.21484375 5.91796875 C-0.78332031 6.99691406 -1.35179687 8.07585937 -1.9375 9.1875 C-2.50339844 10.27417969 -3.06929687 11.36085938 -3.65234375 12.48046875 C-4.09707031 13.31191406 -4.54179688 14.14335937 -5 15 C-5.33 13.68 -5.66 12.36 -6 11 C-5.34 11 -4.68 11 -4 11 C-4 10.01 -4 9.02 -4 8 C-4.66 7.67 -5.32 7.34 -6 7 C-5.34 6.01 -4.68 5.02 -4 4 C-3.34 4 -2.68 4 -2 4 C-1.34 2.68 -0.68 1.36 0 0 Z " fill="#EC709B" transform="translate(569,309)"/>
<path d="M0 0 C0 0.66 0 1.32 0 2 C-0.99 2 -1.98 2 -3 2 C-3.33 2.99 -3.66 3.98 -4 5 C-5.77734375 6.203125 -5.77734375 6.203125 -7.9375 7.25 C-9.00291016 7.78367187 -9.00291016 7.78367187 -10.08984375 8.328125 C-10.72019531 8.54984375 -11.35054688 8.7715625 -12 9 C-12.66 8.67 -13.32 8.34 -14 8 C-4.57142857 0 -4.57142857 0 0 0 Z " fill="#66E0F2" transform="translate(88,31)"/>
<path d="M0 0 C0.66 0.33 1.32 0.66 2 1 C-1.51582826 5.66283606 -4.03648545 8.72210402 -10 10 C-3.84965831 2.51708428 -3.84965831 2.51708428 0 0 Z " fill="#BEF8FD" transform="translate(117,38)"/>
<path d="M0 0 C0 0.66 0 1.32 0 2 C0.99 2.33 1.98 2.66 3 3 C3.33 4.65 3.66 6.3 4 8 C-2.75 4.375 -2.75 4.375 -5 1 C-2 0 -2 0 0 0 Z " fill="#E83F76" transform="translate(500,34)"/>
<path d="M0 0 C7.41216681 0.35865323 12.56479472 2.35920537 19 6 C19 6.66 19 7.32 19 8 C18.32582031 7.72414063 17.65164063 7.44828125 16.95703125 7.1640625 C13.5584527 5.82618085 10.12928907 4.59731761 6.6875 3.375 C6.04232422 3.14554688 5.39714844 2.91609375 4.73242188 2.6796875 C3.15525821 2.1189182 1.57767216 1.55933709 0 1 C0 0.67 0 0.34 0 0 Z " fill="#E24A7C" transform="translate(474,26)"/>
<path d="M0 0 C0.73605469 0.40992188 1.47210938 0.81984375 2.23046875 1.2421875 C3.20628906 1.78101563 4.18210937 2.31984375 5.1875 2.875 C6.15042969 3.40867187 7.11335938 3.94234375 8.10546875 4.4921875 C10.69739518 5.8423678 13.26761098 6.97098329 16 8 C14.375 8.6875 14.375 8.6875 12 9 C7.66317523 7.20870281 3.77192802 4.78404211 0 2 C0 1.34 0 0.68 0 0 Z " fill="#2FD5E9" transform="translate(118,349)"/>
<path d="M0 0 C0.66 0.33 1.32 0.66 2 1 C2 1.66 2 2.32 2 3 C0.68 3 -0.64 3 -2 3 C-2 3.99 -2 4.98 -2 6 C-3.65 6.66 -5.3 7.32 -7 8 C-7.66 7.34 -8.32 6.68 -9 6 C-6.03 4.02 -3.06 2.04 0 0 Z " fill="#CEFBFE" transform="translate(130,30)"/>
<path d="M0 0 C0.99 0.66 1.98 1.32 3 2 C1.38405168 4.04119788 -0.2856382 6.04072937 -2 8 C-2.66 8 -3.32 8 -4 8 C-4.33 6.68 -4.66 5.36 -5 4 C-4.360625 3.525625 -3.72125 3.05125 -3.0625 2.5625 C-1.11706694 1.16261274 -1.11706694 1.16261274 0 0 Z " fill="#EB5886" transform="translate(550,337)"/>
<path d="M0 0 C0.33 0 0.66 0 1 0 C1.3690205 9.41002278 1.3690205 9.41002278 -1 14 C-1.33 14 -1.66 14 -2 14 C-2.1799928 8.78020872 -1.97094808 4.92737019 0 0 Z " fill="#D1FCFE" transform="translate(90,76)"/>
<path d="M0 0 C3.59634744 3.49359465 6.83451967 7.11098131 10 11 C9.01 11.495 9.01 11.495 8 12 C6.84545838 10.75803878 5.70167438 9.50607155 4.5625 8.25 C3.92441406 7.55390625 3.28632812 6.8578125 2.62890625 6.140625 C1.00918675 4.01207275 0.41732744 2.60976595 0 0 Z " fill="#34D4EE" transform="translate(100,331)"/>
<path d="M0 0 C-0.33 0.66 -0.66 1.32 -1 2 C-3.50390625 2.6328125 -3.50390625 2.6328125 -6.5625 3.125 C-8.08037109 3.37636719 -8.08037109 3.37636719 -9.62890625 3.6328125 C-10.80259766 3.81457031 -10.80259766 3.81457031 -12 4 C-12 3.34 -12 2.68 -12 2 C-7.8803623 0.70756464 -4.33168317 -0.26252625 0 0 Z " fill="#E66A93" transform="translate(526,357)"/>
<path d="M0 0 C2 1 2 1 2.8515625 3.50390625 C3.10679687 4.51324219 3.36203125 5.52257812 3.625 6.5625 C3.88539063 7.57441406 4.14578125 8.58632812 4.4140625 9.62890625 C4.60742188 10.41136719 4.80078125 11.19382812 5 12 C4.01 12 3.02 12 2 12 C1.34 8.04 0.68 4.08 0 0 Z " fill="#EA6E98" transform="translate(565,66)"/>
<path d="M0 0 C0.66 0 1.32 0 2 0 C2.33 0.66 2.66 1.32 3 2 C4.32 2 5.64 2 7 2 C7 3.98 7 5.96 7 8 C6.01 7.34 5.02 6.68 4 6 C4 5.34 4 4.68 4 4 C3.01 3.67 2.02 3.34 1 3 C0.67 2.01 0.34 1.02 0 0 Z " fill="#54E0F5" transform="translate(61,334)"/>
<path d="M0 0 C0.33 1.32 0.66 2.64 1 4 C-0.4375 6.25 -0.4375 6.25 -2 8 C-2.99 7.67 -3.98 7.34 -5 7 C-3.35 4.69 -1.7 2.38 0 0 Z " fill="#D0FBFD" transform="translate(106,48)"/>
<path d="M0 0 C3.91593446 0.78318689 7.36406635 2.39179858 11 4 C7.97121688 4.97353743 5.97153543 5.24612776 3 4 C1.25 1.9375 1.25 1.9375 0 0 Z " fill="#EA769A" transform="translate(520,27)"/>
<path d="M0 0 C2.64 0.33 5.28 0.66 8 1 C8.33 2.32 8.66 3.64 9 5 C5.54074837 3.7508258 2.85306797 2.32472205 0 0 Z " fill="#CAFCFD" transform="translate(124,352)"/>
<path d="M0 0 C1.32 0.66 2.64 1.32 4 2 C3.01 2.495 3.01 2.495 2 3 C1.34786708 5.02463255 1.34786708 5.02463255 1 7 C0.34 7 -0.32 7 -1 7 C-1.33 5.68 -1.66 4.36 -2 3 C-1.34 3 -0.68 3 0 3 C0 2.01 0 1.02 0 0 Z " fill="#ED5689" transform="translate(554,331)"/>
<path d="M0 0 C2.97 0.495 2.97 0.495 6 1 C6 2.98 6 4.96 6 7 C1.125 2.25 1.125 2.25 0 0 Z " fill="#D1FCFE" transform="translate(100,330)"/>
<path d="M0 0 C1.15224028 0.92961422 2.29659176 1.8690125 3.4375 2.8125 C4.07558594 3.33457031 4.71367188 3.85664062 5.37109375 4.39453125 C7 6 7 6 8 9 C7.34 9 6.68 9 6 9 C5.34 8.01 4.68 7.02 4 6 C3.01 5.67 2.02 5.34 1 5 C0.67 3.35 0.34 1.7 0 0 Z " fill="#FED5E7" transform="translate(508,47)"/>
<path d="M0 0 C0.66 0 1.32 0 2 0 C0.55746343 3.36591866 -1.33264727 5.51047079 -4 8 C-4 6.68 -4 5.36 -4 4 C-3.34 4 -2.68 4 -2 4 C-1.67 3.01 -1.34 2.02 -1 1 C-0.67 0.67 -0.34 0.34 0 0 Z " fill="#29D4F0" transform="translate(103,49)"/>
<path d="M0 0 C1.32 0.66 2.64 1.32 4 2 C1.03 4.475 1.03 4.475 -2 7 C-1.125 2.25 -1.125 2.25 0 0 Z " fill="#15D7EB" transform="translate(108,41)"/>
<path d="M0 0 C0.33 0 0.66 0 1 0 C1.36923077 5.53846154 1.36923077 5.53846154 -0.5 7.875 C-1.2425 8.431875 -1.2425 8.431875 -2 9 C-1.125 1.125 -1.125 1.125 0 0 Z " fill="#64E3F0" transform="translate(49,73)"/>
</svg>
