<?xml version="1.0" encoding="UTF-8"?>
<svg version="1.1" xmlns="http://www.w3.org/2000/svg" width="512" height="512">
<path d="M0 0 C0.76166473 -0.00067474 1.52332947 -0.00134949 2.30807495 -0.00204468 C13.68231924 0.01397391 24.55273892 0.48473358 35.625 3.25 C36.30127441 3.41097168 36.97754883 3.57194336 37.67431641 3.73779297 C61.61358803 9.54547923 83.62597942 21.5063601 101.625 38.25 C102.23230957 38.81348145 102.83961914 39.37696289 103.46533203 39.95751953 C130.21422793 65.06831004 149.01310177 99.73585673 150.80200195 136.93017578 C151.51920471 180.99671348 141.97382922 221.00353608 110.34765625 253.7421875 C98.94548481 265.31309117 98.94548481 265.31309117 93.625 269.25 C94.87764145 269.25142502 96.1302829 269.25285004 97.42088318 269.25431824 C109.29169187 269.27107028 121.16216136 269.31409296 133.03279018 269.38209057 C139.13396956 269.41621537 145.23490237 269.4414479 151.33618164 269.44555664 C157.2368107 269.4498708 163.13688492 269.47859009 169.03734016 269.52343178 C171.27566342 269.53630775 173.51405341 269.5407501 175.75240898 269.53615379 C194.30875031 269.50695555 209.96940056 271.44287853 225.625 282.25 C226.48480469 282.83394531 227.34460938 283.41789062 228.23046875 284.01953125 C242.45041647 294.49158577 252.91768858 311.80395604 255.625 329.25 C256.38779206 338.37376739 256.21330042 347.55930476 256.19140625 356.70703125 C256.19532195 358.7039765 256.19925181 360.70092212 256.20470566 362.69786376 C256.22161118 368.96410518 256.21823578 375.23010258 256.20141602 381.49633789 C256.18451829 387.91082026 256.20031749 394.32462083 256.2326389 400.73902875 C256.25953554 406.29202279 256.26655691 411.84480725 256.25812382 417.39785975 C256.25325061 420.69428264 256.25727413 423.99021349 256.27591133 427.28660011 C256.38863434 450.83222072 253.92068563 470.09152722 236.9921875 487.875 C236.21101563 488.65875 235.42984375 489.4425 234.625 490.25 C233.86445313 491.03375 233.10390625 491.8175 232.3203125 492.625 C217.90886714 506.6111896 199.64950144 510.87830873 180.17399597 510.7646637 C178.55710082 510.77000069 176.94021064 510.77707296 175.32332975 510.78571075 C170.91825565 510.80421263 166.51352059 510.79807645 162.10843313 510.78755772 C157.34277254 510.78052998 152.57717913 510.79659071 147.8115387 510.80955505 C138.48980824 510.83114148 129.16820012 510.8310818 119.84645291 510.82292951 C112.26539891 510.81661631 104.68438044 510.81777864 97.1033268 510.82420158 C95.48162211 510.82555407 95.48162211 510.82555407 93.82715571 510.82693387 C91.63045061 510.82878518 89.43374552 510.83064774 87.23704044 510.83252143 C66.66041365 510.84908157 46.08385553 510.84039625 25.50723288 510.82353585 C6.70842191 510.80884413 -12.09022915 510.82346307 -30.88901953 510.85230602 C-50.22068439 510.88174421 -69.55227557 510.89265917 -88.88396186 510.88312382 C-91.07326773 510.88210133 -93.26257361 510.88110672 -95.4518795 510.8801403 C-96.52888879 510.87966391 -97.60589808 510.87918752 -98.71554402 510.8786967 C-106.27995825 510.87653822 -113.84430227 510.88630659 -121.40870094 510.90091133 C-130.63827763 510.91848339 -139.86765064 510.91824773 -149.0972195 510.89555968 C-153.80019139 510.88446106 -158.50280507 510.88115486 -163.20576096 510.89986038 C-167.52213126 510.91680642 -171.83783487 510.91012573 -176.15416308 510.88564359 C-177.70450506 510.88080575 -179.25490228 510.88414976 -180.80519745 510.89713103 C-200.42745227 511.04940573 -217.56569728 505.35753336 -232 491.6171875 C-232.78375 490.83601563 -233.5675 490.05484375 -234.375 489.25 C-235.15875 488.48945313 -235.9425 487.72890625 -236.75 486.9453125 C-242.90967684 480.59834819 -247.22866539 473.51136189 -250.375 465.25 C-250.70891754 464.42649551 -251.04283508 463.60299103 -251.38687134 462.75453186 C-255.76095498 450.11352265 -254.97302853 437.00525211 -254.94140625 423.79296875 C-254.94532195 421.7960235 -254.94925181 419.79907788 -254.95470566 417.80213624 C-254.97161118 411.53589482 -254.96823578 405.26989742 -254.95141602 399.00366211 C-254.93451829 392.58917974 -254.95031749 386.17537917 -254.9826389 379.76097125 C-255.00953554 374.20797721 -255.01655691 368.65519275 -255.00812382 363.10214025 C-255.00325061 359.80571736 -255.00727413 356.50978651 -255.02591133 353.21339989 C-255.12056386 333.44234764 -253.9096006 316.95945285 -242.375 300.25 C-241.79105469 299.39019531 -241.20710937 298.53039062 -240.60546875 297.64453125 C-230.06087434 283.32608199 -212.87397221 273.15122341 -195.375 270.25 C-187.43696031 269.50921199 -179.44116018 269.64362414 -171.4765625 269.640625 C-169.18727462 269.62561947 -166.89799747 269.6088874 -164.60873413 269.59051514 C-158.62808697 269.54709609 -152.64758579 269.52689919 -146.66680908 269.51177979 C-140.546015 269.49211647 -134.42537648 269.45015716 -128.3046875 269.41015625 C-116.32817328 269.33513007 -104.35169435 269.28467202 -92.375 269.25 C-93.17744141 268.51539551 -93.97988281 267.78079102 -94.80664062 267.02392578 C-95.88152174 266.03940039 -96.9563909 265.05486193 -98.03125 264.0703125 C-98.55750977 263.58860596 -99.08376953 263.10689941 -99.62597656 262.6105957 C-127.05104224 237.4850163 -145.72544972 204.7657067 -149.375 167.25 C-149.60983113 161.79409002 -149.6206665 156.33543268 -149.625 150.875 C-149.62567474 150.11333527 -149.62634949 149.35167053 -149.62704468 148.56692505 C-149.61102609 137.19268076 -149.14026642 126.32226108 -146.375 115.25 C-146.21402832 114.57372559 -146.05305664 113.89745117 -145.88720703 113.20068359 C-140.07952077 89.26141197 -128.1186399 67.24902058 -111.375 49.25 C-110.52977783 48.33903564 -110.52977783 48.33903564 -109.66748047 47.40966797 C-80.58397569 16.42889732 -42.45471765 0.03369286 0 0 Z M-84.375 66.25 C-85.33792969 67.12011719 -85.33792969 67.12011719 -86.3203125 68.0078125 C-96.74842025 77.65987502 -103.62198327 90.44479079 -109.375 103.25 C-109.85839844 104.31734375 -110.34179688 105.3846875 -110.83984375 106.484375 C-120.87808175 130.52732803 -122.03441786 159.3818364 -114.375 184.25 C-114.06151611 185.27988037 -114.06151611 185.27988037 -113.74169922 186.33056641 C-104.51569457 215.54279235 -83.48276321 241.35571301 -56.28491211 255.60546875 C-53.01964857 257.24143042 -49.71196543 258.76670967 -46.375 260.25 C-45.30894531 260.73210937 -44.24289063 261.21421875 -43.14453125 261.7109375 C-14.42278978 273.72383317 18.31396669 272.39368187 46.92993164 260.85668945 C75.75948978 248.55425488 97.9878717 225.67980872 110.625 197.25 C111.10710937 196.18394531 111.58921875 195.11789063 112.0859375 194.01953125 C122.13823794 169.98539473 123.28247527 141.11185648 115.625 116.25 C115.41601074 115.56341309 115.20702148 114.87682617 114.99169922 114.16943359 C105.34829069 83.63558501 83.67818788 58.83248279 55.56738281 43.89648438 C8.08886149 19.7062587 -46.76829611 29.55774484 -84.375 66.25 Z M-215.375 316.25 C-223.46937507 327.20416461 -224.52734191 338.68173988 -224.52026367 351.87792969 C-224.52362228 352.7947049 -224.5269809 353.7114801 -224.53044128 354.65603638 C-224.539874 357.66133003 -224.54189055 360.6665675 -224.54296875 363.671875 C-224.5461868 365.78021263 -224.54955128 367.88855004 -224.55305481 369.99688721 C-224.55902699 374.40808632 -224.56089669 378.81926589 -224.56030273 383.23046875 C-224.56020125 388.85305285 -224.57384753 394.47551028 -224.59107494 400.09806442 C-224.60225244 404.45123864 -224.60422018 408.80438279 -224.60369301 413.15756989 C-224.6048647 415.22898037 -224.60924033 417.30039184 -224.61702538 419.37178802 C-224.6818805 438.41059856 -224.64540062 454.37483396 -210.83984375 468.984375 C-198.57547626 480.25748616 -184.2960798 480.40215845 -168.52301025 480.38371277 C-167.00673102 480.38558259 -165.49045226 480.38788397 -163.97417426 480.39057809 C-159.81963173 480.39668137 -155.66510936 480.39656423 -151.51056337 480.39538372 C-147.02508517 480.39517934 -142.53961338 480.40070202 -138.05413818 480.40544128 C-129.27071476 480.41374033 -120.48729805 480.41649579 -111.70387104 480.41705366 C-104.56266833 480.41752918 -97.42146782 480.4195857 -90.28026581 480.42275429 C-70.02410738 480.43155884 -49.76795424 480.43617398 -29.51179388 480.43542381 C-27.87448618 480.43536388 -27.87448618 480.43536388 -26.20410156 480.43530273 C-25.11122706 480.43526185 -24.01835257 480.43522097 -22.89236066 480.43517885 C-5.18268441 480.43477244 12.52697057 480.44434125 30.23664066 480.4584411 C48.43015304 480.47281163 66.62365505 480.47971091 84.81717324 480.47884732 C95.02767857 480.47851559 105.2381616 480.48125244 115.4486618 480.49202538 C124.14230851 480.50113927 132.8359228 480.50329831 141.52957222 480.49651595 C145.96242041 480.49325525 150.39520646 480.49317782 154.82804871 480.5018692 C158.89192411 480.50975499 162.95568832 480.50828163 167.01956108 480.49958507 C168.48386005 480.49805465 169.94816741 480.49984884 171.41245648 480.50544515 C188.49261984 480.56636085 201.60294327 478.76927059 214.359375 466.71484375 C224.48695227 455.69673814 225.77793882 442.93110587 225.77026367 428.62207031 C225.77362228 427.7052951 225.7769809 426.7885199 225.78044128 425.84396362 C225.789874 422.83866997 225.79189055 419.8334325 225.79296875 416.828125 C225.7961868 414.71978737 225.79955128 412.61144996 225.80305481 410.50311279 C225.80902699 406.09191368 225.81089669 401.68073411 225.81030273 397.26953125 C225.81020125 391.64694715 225.82384753 386.02448972 225.84107494 380.40193558 C225.85225244 376.04876136 225.85422018 371.69561721 225.85369301 367.34243011 C225.8548647 365.27101963 225.85924033 363.19960816 225.86702538 361.12821198 C225.9318805 342.08940144 225.89540062 326.12516604 212.08984375 311.515625 C199.82547626 300.24251384 185.5460798 300.09784155 169.77301025 300.11628723 C168.25673102 300.11441741 166.74045226 300.11211603 165.22417426 300.10942191 C161.06963173 300.10331863 156.91510936 300.10343577 152.76056337 300.10461628 C148.27508517 300.10482066 143.78961338 300.09929798 139.30413818 300.09455872 C130.52071476 300.08625967 121.73729805 300.08350421 112.95387104 300.08294634 C105.81266833 300.08247082 98.67146782 300.0804143 91.53026581 300.07724571 C71.27410738 300.06844116 51.01795424 300.06382602 30.76179388 300.06457619 C29.12448618 300.06463612 29.12448618 300.06463612 27.45410156 300.06469727 C26.36122706 300.06473815 25.26835257 300.06477903 24.14236066 300.06482115 C6.43268441 300.06522756 -11.27697057 300.05565875 -28.98664066 300.0415589 C-47.18015304 300.02718837 -65.37365505 300.02028909 -83.56717324 300.02115268 C-93.77767857 300.02148441 -103.9881616 300.01874756 -114.1986618 300.00797462 C-122.89230851 299.99886073 -131.5859228 299.99670169 -140.27957222 300.00348405 C-144.71242041 300.00674475 -149.14520646 300.00682218 -153.57804871 299.9981308 C-157.64192411 299.99024501 -161.70568832 299.99171837 -165.76956108 300.00041493 C-167.23386005 300.00194535 -168.69816741 300.00015116 -170.16245648 299.99455485 C-188.5154514 299.92909964 -202.51272507 302.25673193 -215.375 316.25 Z " fill="#000000" transform="translate(255.375,0.75)"/>
<path d="M0 0 C4.75358682 2.37679341 7.84362209 5.27832082 9.93022156 10.18939209 C10.31993889 11.37519867 10.31993889 11.37519867 10.7175293 12.58496094 C11.16765633 13.93590851 11.16765633 13.93590851 11.62687683 15.31414795 C11.93949966 16.27782288 12.2521225 17.2414978 12.57421875 18.234375 C12.90291458 19.22753723 13.23161041 20.22069946 13.57026672 21.24395752 C14.61641908 24.41035744 15.65207535 27.58007783 16.6875 30.75 C17.39579482 32.89996688 18.10477123 35.04970934 18.81445312 37.19921875 C20.55088025 42.46356927 22.27870698 47.73068295 24 53 C25.70773567 50.4383965 26.52585894 48.75397066 27.43286133 45.89916992 C27.69686234 45.07789108 27.96086334 44.25661224 28.23286438 43.41044617 C28.51308945 42.52605362 28.79331451 41.64166107 29.08203125 40.73046875 C29.69021736 38.85334128 30.29895893 36.9763937 30.90820312 35.09960938 C31.86194771 32.14567431 32.81151217 29.19060993 33.7512207 26.23217773 C34.66165714 23.37329742 35.58929197 20.52045705 36.51953125 17.66796875 C36.93075981 16.35048897 36.93075981 16.35048897 37.35029602 15.00639343 C39.31990833 9.02291672 41.61349836 4.31567108 46.9765625 0.6484375 C52.54293542 -1.13538085 58.32433254 -0.83783373 63.5 1.75 C67.8948607 5.70537463 69.84204313 8.5822267 70.23539734 14.6031189 C70.16341627 19.50020905 68.79608988 23.74376967 67.23364258 28.35009766 C66.79214874 29.69801643 66.79214874 29.69801643 66.34173584 31.07316589 C65.37140059 34.0242774 64.38369121 36.96921219 63.39453125 39.9140625 C62.71082385 41.97311948 62.02778455 44.03239841 61.34538269 46.09188843 C59.91481404 50.39987177 58.47548439 54.70480207 57.0300293 59.0078125 C55.18118968 64.51434268 53.35545273 70.0282114 51.5363512 75.54462624 C50.13133608 79.7961358 48.71358 84.0433123 47.29202843 88.28931808 C46.6138132 90.3204834 45.93966684 92.35301215 45.26972389 94.38692093 C44.33056871 97.2320536 43.37424734 100.07084692 42.41333008 102.90869141 C42.14143356 103.74417007 41.86953705 104.57964874 41.58940125 105.44044495 C39.61090363 111.19906161 37.19813183 115.81313515 32.0234375 119.3515625 C26.45706458 121.13538085 20.67566746 120.83783373 15.5 118.25 C10.55541 113.799869 8.86418814 109.32687751 6.8137207 103.13574219 C6.51092194 102.24092636 6.20812317 101.34611053 5.89614868 100.42417908 C4.89821144 97.46764149 3.91148286 94.50751252 2.92578125 91.546875 C2.23534998 89.48657052 1.54460553 87.42637097 0.8535614 85.36627197 C-0.59311303 81.04715878 -2.0338813 76.72612774 -3.47094727 72.40380859 C-5.31045607 66.87360244 -7.1676417 61.34951875 -9.02974224 55.82688522 C-10.46132426 51.57278683 -11.88180888 47.31504454 -13.29917336 43.05619049 C-13.97915648 41.01844396 -14.66293692 38.98196041 -15.35062218 36.94680023 C-16.31258484 34.09550391 -17.2590656 31.23950359 -18.2019043 28.38183594 C-18.48706406 27.54726364 -18.77222382 26.71269135 -19.06602478 25.85282898 C-21.10083509 19.60383624 -22.13734963 14.11274635 -19.8125 7.75 C-14.7163438 0.01790094 -8.69224591 -0.8962344 0 0 Z " fill="#000000" transform="translate(269,331)"/>
<path d="M0 0 C0.96494385 0.5374585 1.9298877 1.07491699 2.92407227 1.62866211 C15.06466812 8.47628244 26.18455204 15.03266803 30.5 29.25 C32.81204055 41.81208696 30.49254724 52.29611901 23.46484375 62.79296875 C16.66489373 69.92462365 7.5250531 74.49636289 -1.0625 79.125 C-2.61130859 79.98254883 -2.61130859 79.98254883 -4.19140625 80.85742188 C-14.59534141 86.49675233 -23.93671915 88.93575152 -35.640625 86.0703125 C-45.43955985 82.83733059 -52.40581285 76.76064357 -57.640625 68.0078125 C-60.55194928 61.95716866 -61.25415005 56.29419569 -61.2734375 49.703125 C-61.2800943 48.89566833 -61.2867511 48.08821167 -61.29360962 47.25628662 C-61.30368483 45.55532083 -61.30842824 43.85431591 -61.30810547 42.15332031 C-61.31246471 39.58330299 -61.3487985 37.01502525 -61.38671875 34.4453125 C-61.47949078 21.06317003 -59.7020652 10.25143243 -49.9375 0.3125 C-34.35981302 -13.37789029 -16.42811819 -9.19980362 0 0 Z M-28.53759766 23.41796875 C-30.55908912 26.15371583 -30.3259043 28.25002249 -30.3359375 31.625 C-30.33980469 32.86507812 -30.34367187 34.10515625 -30.34765625 35.3828125 C-30.33605469 36.67960937 -30.32445312 37.97640625 -30.3125 39.3125 C-30.32410156 40.60929687 -30.33570313 41.90609375 -30.34765625 43.2421875 C-30.34378906 44.48226562 -30.33992188 45.72234375 -30.3359375 47 C-30.33255371 48.13824219 -30.32916992 49.27648437 -30.32568359 50.44921875 C-30.18500509 53.3390049 -30.18500509 53.3390049 -28.41259766 55.20703125 C-27.92581543 55.57183594 -27.4390332 55.93664062 -26.9375 56.3125 C-21.14679972 54.722896 -16.3196838 51.83556717 -11.1875 48.8125 C-10.32511719 48.31363281 -9.46273437 47.81476563 -8.57421875 47.30078125 C-3.97485073 44.68115715 -3.97485073 44.68115715 0.0625 41.3125 C0.19351922 38.83730483 0.19351922 38.83730483 -0.9375 36.3125 C-3.52111994 34.15935002 -3.52111994 34.15935002 -6.8125 32.375 C-7.39169189 32.03726563 -7.97088379 31.69953125 -8.56762695 31.3515625 C-10.34806339 30.32069394 -12.140957 29.3149799 -13.9375 28.3125 C-15.00613281 27.70277344 -16.07476562 27.09304687 -17.17578125 26.46484375 C-22.69333245 22.60467056 -22.69333245 22.60467056 -28.53759766 23.41796875 Z " fill="#000000" transform="translate(270.9375,111.6875)"/>
<path d="M0 0 C0.89297791 -0.00807175 1.78595581 -0.01614349 2.70599365 -0.02445984 C4.59906063 -0.03830445 6.49215262 -0.04902491 8.38525391 -0.05688477 C11.2716451 -0.07406855 14.15688222 -0.11794717 17.04296875 -0.16210938 C18.88280408 -0.17223895 20.72264915 -0.18075422 22.5625 -0.1875 C23.42208313 -0.20500809 24.28166626 -0.22251617 25.16729736 -0.24055481 C30.6284638 -0.22092564 33.70457845 0.61647618 38.046875 4.23828125 C41.59268536 8.2731689 42.35047679 11.80489534 42.26171875 17.1796875 C41.78494526 21.74804442 39.82124614 24.53945851 36.484375 27.55078125 C33.139441 29.86650479 31.492176 30.36135278 27.4765625 30.3359375 C26.58066406 30.33271484 25.68476563 30.32949219 24.76171875 30.32617188 C23.82457031 30.31779297 22.88742187 30.30941406 21.921875 30.30078125 C20.97699219 30.29626953 20.03210938 30.29175781 19.05859375 30.28710938 C16.7213273 30.275305 14.38409331 30.25736924 12.046875 30.23828125 C12.046875 35.18828125 12.046875 40.13828125 12.046875 45.23828125 C13.42101562 45.191875 14.79515625 45.14546875 16.2109375 45.09765625 C18.03122818 45.06012448 19.85154248 45.02372583 21.671875 44.98828125 C23.02732422 44.93800781 23.02732422 44.93800781 24.41015625 44.88671875 C30.32813502 44.8003249 33.5154111 45.35314342 38.046875 49.23828125 C41.59268536 53.2731689 42.35047679 56.80489534 42.26171875 62.1796875 C41.78494526 66.74804442 39.82124614 69.53945851 36.484375 72.55078125 C33.139441 74.86650479 31.492176 75.36135278 27.4765625 75.3359375 C26.58066406 75.33271484 25.68476563 75.32949219 24.76171875 75.32617188 C23.35599609 75.31360352 23.35599609 75.31360352 21.921875 75.30078125 C20.97699219 75.29626953 20.03210938 75.29175781 19.05859375 75.28710938 C16.7213273 75.275305 14.38409331 75.25736924 12.046875 75.23828125 C12.046875 80.18828125 12.046875 85.13828125 12.046875 90.23828125 C13.42101562 90.191875 14.79515625 90.14546875 16.2109375 90.09765625 C18.03122818 90.06012448 19.85154248 90.02372583 21.671875 89.98828125 C22.57550781 89.95476562 23.47914063 89.92125 24.41015625 89.88671875 C30.32813502 89.8003249 33.5154111 90.35314342 38.046875 94.23828125 C41.59268536 98.2731689 42.35047679 101.80489534 42.26171875 107.1796875 C41.78494526 111.74804442 39.82124614 114.53945851 36.484375 117.55078125 C32.05009376 120.62066826 28.35276542 120.43179025 23.09375 120.4765625 C22.20077209 120.48463425 21.30779419 120.49270599 20.38775635 120.50102234 C18.49468937 120.51486695 16.60159738 120.52558741 14.70849609 120.53344727 C11.8221049 120.55063105 8.93686778 120.59450967 6.05078125 120.63867188 C4.21094592 120.64880145 2.37110085 120.65731672 0.53125 120.6640625 C-0.32833313 120.68157059 -1.18791626 120.69907867 -2.07354736 120.71711731 C-7.5347138 120.69748814 -10.61082845 119.86008632 -14.953125 116.23828125 C-18.00529495 112.76512234 -19.07438064 109.79057834 -19.09356689 105.19743347 C-19.09927704 104.37739334 -19.10498718 103.55735321 -19.11087036 102.71246338 C-19.11198822 101.8163031 -19.11310608 100.92014282 -19.11425781 99.99682617 C-19.11922272 99.05017593 -19.12418762 98.1035257 -19.12930298 97.12818909 C-19.14392611 93.99170203 -19.15072696 90.85526556 -19.15625 87.71875 C-19.16200144 85.54022724 -19.16775917 83.36170449 -19.17352295 81.18318176 C-19.18403344 76.61259729 -19.18987576 72.04203041 -19.19335938 67.47143555 C-19.19884342 61.61701283 -19.22286949 55.76282277 -19.25133133 49.90847301 C-19.26996234 45.40716372 -19.27516357 40.90591041 -19.27669525 36.40456581 C-19.27972138 34.24641969 -19.28774854 32.08827454 -19.30088043 29.93016624 C-19.3179499 26.90923785 -19.3160583 23.88887708 -19.30957031 20.86791992 C-19.3187851 19.97783234 -19.32799988 19.08774475 -19.3374939 18.17068481 C-19.30346318 13.10807762 -18.77468573 9.61853479 -15.953125 5.23828125 C-10.60524335 0.41214415 -7.0270832 0.05982457 0 0 Z " fill="#000000" transform="translate(386.953125,330.76171875)"/>
<path d="M0 0 C4.004793 2.0023965 6.6587028 4.17998877 9 8 C10.19754353 11.59263059 10.13198753 14.85456607 10.11352539 18.5925293 C10.11367142 19.36349945 10.11381744 20.1344696 10.1139679 20.92880249 C10.11327119 23.47730319 10.1054901 26.02573082 10.09765625 28.57421875 C10.09579121 30.34113017 10.09436771 32.1080421 10.09336853 33.87495422 C10.08955012 38.52578153 10.07972558 43.17657761 10.06866455 47.82739258 C10.05843591 52.57307513 10.05386779 57.31876273 10.04882812 62.06445312 C10.03810273 71.3763158 10.02103439 80.6881553 10 90 C11.02883301 89.97905273 12.05766602 89.95810547 13.11767578 89.93652344 C16.95298213 89.86385006 20.78822822 89.81810179 24.62402344 89.78027344 C26.28070325 89.76021991 27.93731282 89.73296971 29.59375 89.69824219 C31.98194758 89.64944488 34.36920547 89.62696936 36.7578125 89.609375 C37.85973434 89.57840729 37.85973434 89.57840729 38.98391724 89.54681396 C44.15509327 89.54458293 47.00822833 90.76667245 51 94 C54.54581036 98.03488765 55.30360179 101.56661409 55.21484375 106.94140625 C54.73807026 111.50976317 52.77437114 114.30117726 49.4375 117.3125 C45.87285606 119.78033042 44.03285645 120.13341187 39.72753906 120.17700195 C38.62589417 120.18983719 37.52424927 120.20267242 36.38922119 120.21589661 C35.19343445 120.22328354 33.99764771 120.23067047 32.765625 120.23828125 C31.53970642 120.246353 30.31378784 120.25442474 29.05072021 120.26274109 C26.45147114 120.27659237 23.8522038 120.28730983 21.25292969 120.29516602 C17.28031928 120.30838057 13.30832218 120.35624754 9.3359375 120.40039062 C6.81250613 120.41051809 4.28906767 120.41903402 1.765625 120.42578125 C0.57793518 120.44328934 -0.60975464 120.46079742 -1.83343506 120.47883606 C-8.187421 120.46215313 -12.20761913 120.35124333 -17 116 C-20.05216995 112.52684109 -21.12125564 109.55229709 -21.14044189 104.95915222 C-21.14615204 104.13911209 -21.15186218 103.31907196 -21.15774536 102.47418213 C-21.15886322 101.57802185 -21.15998108 100.68186157 -21.16113281 99.75854492 C-21.16609772 98.81189468 -21.17106262 97.86524445 -21.17617798 96.88990784 C-21.19080111 93.75342078 -21.19760196 90.61698431 -21.203125 87.48046875 C-21.20887644 85.30194599 -21.21463417 83.12342324 -21.22039795 80.94490051 C-21.23090844 76.37431604 -21.23675076 71.80374916 -21.24023438 67.2331543 C-21.24571842 61.37873158 -21.26974449 55.52454152 -21.29820633 49.67019176 C-21.31683734 45.16888247 -21.32203857 40.66762916 -21.32357025 36.16628456 C-21.32659638 34.00813844 -21.33462354 31.84999329 -21.34775543 29.69188499 C-21.3648249 26.6709566 -21.3629333 23.65059583 -21.35644531 20.62963867 C-21.3656601 19.73955109 -21.37487488 18.8494635 -21.3843689 17.93240356 C-21.35033818 12.86979637 -20.82156073 9.38025354 -18 5 C-12.18140719 -0.25092522 -7.70061453 -0.79398992 0 0 Z " fill="#000000" transform="translate(104,331)"/>
<path d="M0 0 C4.004793 2.0023965 6.6587028 4.17998877 9 8 C9.9007505 10.7022515 10.12885554 12.26710112 10.14044189 15.04084778 C10.14900711 16.27090797 10.14900711 16.27090797 10.15774536 17.52581787 C10.15886322 18.42197815 10.15998108 19.31813843 10.16113281 20.24145508 C10.16609772 21.18810532 10.17106262 22.13475555 10.17617798 23.11009216 C10.19080111 26.24657922 10.19760196 29.38301569 10.203125 32.51953125 C10.20887644 34.69805401 10.21463417 36.87657676 10.22039795 39.05509949 C10.23090844 43.62568396 10.23675076 48.19625084 10.24023438 52.7668457 C10.24571842 58.62126842 10.26974449 64.47545848 10.29820633 70.32980824 C10.31683734 74.83111753 10.32203857 79.33237084 10.32357025 83.83371544 C10.32659638 85.99186156 10.33462354 88.15000671 10.34775543 90.30811501 C10.3648249 93.3290434 10.3629333 96.34940417 10.35644531 99.37036133 C10.3656601 100.26044891 10.37487488 101.1505365 10.3843689 102.06759644 C10.35033818 107.13020363 9.82156073 110.61974646 7 115 C1.82316998 119.67177343 -1.39353498 120.3478341 -8.234375 120.28515625 C-13.0473343 119.7889048 -15.71534029 117.46185415 -18.8125 113.9375 C-20.65965873 110.92371471 -21.12600097 108.41627669 -21.14044189 104.95915222 C-21.14615204 104.13911209 -21.15186218 103.31907196 -21.15774536 102.47418213 C-21.15886322 101.57802185 -21.15998108 100.68186157 -21.16113281 99.75854492 C-21.16609772 98.81189468 -21.17106262 97.86524445 -21.17617798 96.88990784 C-21.19080111 93.75342078 -21.19760196 90.61698431 -21.203125 87.48046875 C-21.20887644 85.30194599 -21.21463417 83.12342324 -21.22039795 80.94490051 C-21.23090844 76.37431604 -21.23675076 71.80374916 -21.24023438 67.2331543 C-21.24571842 61.37873158 -21.26974449 55.52454152 -21.29820633 49.67019176 C-21.31683734 45.16888247 -21.32203857 40.66762916 -21.32357025 36.16628456 C-21.32659638 34.00813844 -21.33462354 31.84999329 -21.34775543 29.69188499 C-21.3648249 26.6709566 -21.3629333 23.65059583 -21.35644531 20.62963867 C-21.3656601 19.73955109 -21.37487488 18.8494635 -21.3843689 17.93240356 C-21.35033818 12.86979637 -20.82156073 9.38025354 -18 5 C-12.18140719 -0.25092522 -7.70061453 -0.79398992 0 0 Z " fill="#000000" transform="translate(209,331)"/>
</svg>
