<?xml version="1.0" encoding="UTF-8"?>
<svg version="1.1" xmlns="http://www.w3.org/2000/svg" width="512" height="512">
<path d="M0 0 C18.91632387 15.72683002 29.72480477 36.07018935 33.6418457 60.18334961 C33.87066939 62.75505464 33.92969438 65.22996414 33.91992188 67.80859375 C33.91756027 68.61736465 33.91519867 69.42613556 33.9127655 70.25941467 C33.90972916 70.87497726 33.90669281 71.49053986 33.90356445 72.12475586 C34.46573669 72.11587341 35.02790894 72.10699097 35.6071167 72.09783936 C41.51295699 72.00863447 47.41860275 71.94872177 53.32495117 71.9050293 C55.52262153 71.88504168 57.72023959 71.85784224 59.91772461 71.82299805 C83.29935048 71.46180982 83.29935048 71.46180982 92.90356445 76.12475586 C93.72066895 76.50301514 94.53777344 76.88127441 95.37963867 77.27099609 C107.74814369 83.26414241 116.6639067 94.32716842 122.0793457 106.72631836 C124.16381668 112.79203011 125.25105646 118.83326328 125.86538696 125.20140076 C125.94468331 125.97367746 126.02397965 126.74595416 126.10567892 127.54163319 C126.36764639 130.10713669 126.62121405 132.6733973 126.87475586 135.23974609 C127.06174617 137.08841881 127.24924426 138.93704023 127.43721008 140.78561401 C127.94461988 145.79124324 128.44460851 150.79758806 128.94300508 155.80412173 C129.46645015 161.05200425 129.99591844 166.29927952 130.52450562 171.54664612 C131.4111952 180.35848449 132.29309736 189.17079207 133.17211914 197.98339844 C134.18723378 208.15984051 135.20973048 218.3355201 136.23623717 228.5108189 C137.22498997 238.31345247 138.20866375 248.11658928 139.18998337 257.91996956 C139.60702003 262.08537102 140.02579298 266.25059245 140.44597244 270.41567802 C140.94093352 275.32446793 141.43142362 280.23368498 141.91852379 285.14326096 C142.09758011 286.94086913 142.2781408 288.73832822 142.46034813 290.53561974 C142.70962654 292.99706205 142.95333747 295.45899667 143.19570923 297.92112732 C143.26827301 298.62484402 143.34083678 299.32856071 143.41559947 300.05360216 C146.29865958 329.85348197 136.54011679 358.09903418 117.90356445 381.12475586 C117.36860352 381.80151367 116.83364258 382.47827148 116.2824707 383.17553711 C99.02487416 404.26815511 71.67389255 416.95535956 44.99964046 419.94074988 C37.71294054 420.58041959 30.36454143 420.4102241 23.05688477 420.39941406 C21.09390063 420.40377046 19.1309182 420.40895667 17.16793823 420.41490173 C11.87431966 420.42820437 6.58077286 420.42888012 1.28714085 420.42633843 C-3.15066697 420.4252626 -7.58846063 420.43016775 -12.02626538 420.43494385 C-22.50669764 420.44600921 -32.98709404 420.44649346 -43.4675293 420.44042969 C-54.23636414 420.4343943 -65.00506818 420.44669678 -75.77388072 420.46799976 C-85.05845234 420.48568314 -94.34298258 420.49160647 -103.62757039 420.48836201 C-109.15562709 420.48655947 -114.68359051 420.48908152 -120.21163177 420.50307655 C-125.41566045 420.51576021 -130.61948704 420.51361238 -135.82351303 420.50066566 C-137.71878252 420.49832295 -139.61406671 420.50095032 -141.50931931 420.50928879 C-170.53567004 420.62765255 -197.4100865 414.04586706 -220.09643555 395.12475586 C-221.03100586 394.35389648 -221.96557617 393.58303711 -222.9284668 392.78881836 C-244.3815624 374.24614272 -257.74894504 346.50514318 -259.98463655 318.34124112 C-260.1635274 314.79461781 -259.97788363 311.29809684 -259.74679565 307.75765991 C-259.69955003 306.98059987 -259.6523044 306.20353984 -259.60362709 305.40293252 C-259.05672212 296.83277147 -258.23327277 288.2921925 -257.37817383 279.74829102 C-257.20525114 277.99175974 -257.03264325 276.23519746 -256.86032104 274.47860718 C-256.39707514 269.76788977 -255.92883878 265.05768232 -255.45911264 260.34760714 C-255.16493678 257.39564283 -254.87183831 254.44357349 -254.57909775 251.49146652 C-253.55529287 241.16780826 -252.52725031 230.84458177 -251.49536133 220.52172852 C-250.53717954 210.93503051 -249.58865121 201.34740978 -248.64449894 191.75932086 C-247.82957316 183.48813681 -247.00773726 175.21765782 -246.18062389 166.94768369 C-245.68841804 162.02506103 -245.19896903 157.10220383 -244.71658707 152.17860794 C-244.26320049 147.5532654 -243.80116961 142.92886456 -243.33269119 138.30502701 C-243.16312938 136.61717711 -242.99656068 134.92902316 -242.83335114 133.24054718 C-240.86593703 112.93109199 -236.74551034 97.47391877 -221.12768555 83.34350586 C-210.75918245 75.01470829 -199.16414298 71.79382062 -186.1315918 71.92944336 C-185.09828232 71.93227325 -184.06497284 71.93510315 -183.00035095 71.9380188 C-179.71975833 71.94915939 -176.43944482 71.97425282 -173.15893555 71.99975586 C-170.92651763 72.00979356 -168.69409541 72.01891803 -166.46166992 72.02709961 C-161.00649754 72.04907865 -155.5514865 72.08249501 -150.09643555 72.12475586 C-150.10737999 71.23186607 -150.10737999 71.23186607 -150.11854553 70.32093811 C-150.29689577 45.39922285 -139.77643349 23.69300715 -122.8815918 5.75366211 C-89.24092224 -25.99973286 -36.31282738 -28.90765153 0 0 Z M-98.99487305 35.48022461 C-107.91954175 46.71070921 -112.09643555 57.75297113 -112.09643555 72.12475586 C-76.45643555 72.12475586 -40.81643555 72.12475586 -4.09643555 72.12475586 C-4.09643555 57.16879254 -8.9396745 44.46778272 -19.15893555 33.37475586 C-30.83036332 22.43900582 -44.5295955 17.58839832 -60.32836914 17.70458984 C-75.12549098 18.18976679 -88.86375204 24.66755547 -98.99487305 35.48022461 Z M-201.09643555 117.12475586 C-203.51073921 122.0058659 -204.6499025 126.35446582 -205.14054871 131.78848267 C-205.21661592 132.52849781 -205.29268314 133.26851296 -205.37105542 134.03095281 C-205.62133375 136.49307092 -205.85534736 138.95645249 -206.08935547 141.42016602 C-206.26617368 143.19328263 -206.44397963 144.96630098 -206.62269592 146.73922729 C-207.10407022 151.54432469 -207.57116153 156.35071288 -208.03534102 161.15749788 C-208.52434899 166.19967838 -209.02535283 171.24066819 -209.5247345 176.28182983 C-210.36206234 184.75296774 -211.19045495 193.22494219 -212.01318359 201.69750977 C-212.96203535 211.4681349 -213.9232751 221.23747741 -214.89161605 231.00618899 C-215.82519665 240.42579326 -216.75148625 249.84609948 -217.67397499 259.26679611 C-218.06544473 263.26425939 -218.45913644 267.26149438 -218.85460472 271.258564 C-219.32105479 275.97759134 -219.78098735 280.69721216 -220.23608971 285.41734695 C-220.40323084 287.1407666 -220.57246532 288.86398484 -220.74405289 290.58696747 C-223.09715469 314.25414063 -222.36827235 334.89793868 -207.15893555 354.49975586 C-205.82438261 356.0584322 -204.47088353 357.60114298 -203.09643555 359.12475586 C-202.4931543 359.82084961 -201.88987305 360.51694336 -201.26831055 361.23413086 C-190.79512496 372.58741607 -174.44176795 380.9635323 -158.94036078 382.31236339 C-156.73555286 382.38511977 -154.53847133 382.40115723 -152.33248901 382.3921814 C-151.49825444 382.39671251 -150.66401987 382.40124362 -149.80450547 382.40591204 C-147.03440746 382.41848035 -144.26450797 382.41694059 -141.49438477 382.4152832 C-139.49771372 382.42127328 -137.50104499 382.42807993 -135.50437927 382.43563843 C-130.09704026 382.45325921 -124.68976461 382.45799223 -119.28239965 382.45927 C-115.89802873 382.46069466 -112.51367375 382.46497029 -109.12930679 382.47026443 C-97.30486281 382.48875349 -85.48046382 382.49693667 -73.65600586 382.49536133 C-62.66280984 382.49416104 -51.66981051 382.5152442 -40.67666423 382.54684865 C-31.21559542 382.57307166 -21.7545906 382.58372606 -12.29348576 382.58245051 C-6.6530745 382.58194254 -1.01283804 382.58753374 4.62753677 382.60880661 C9.93823148 382.62829004 15.24858647 382.62824476 20.55929375 382.61377335 C22.49774998 382.61169647 24.43622804 382.61631848 26.37464714 382.62849426 C48.03480587 382.75563005 66.36217303 377.99409327 82.90356445 363.12475586 C83.51458008 362.60655273 84.1255957 362.08834961 84.75512695 361.55444336 C96.71909082 350.68307893 104.23101698 334.00309989 105.90356445 318.12475586 C106.32084267 307.76748861 105.43729982 297.58526782 104.35888672 287.30395508 C104.19241621 285.66627054 104.02657161 284.02852228 103.86129761 282.39071655 C103.41500378 277.98526679 102.96014537 273.58074006 102.50370145 269.176332 C102.02515704 264.54338961 101.55487444 259.90960862 101.08372498 255.27590942 C100.19089883 246.50693764 99.29111194 237.73869553 98.3886022 228.97071564 C97.06616219 216.1199131 95.75444073 203.26801559 94.44248104 190.4161396 C94.24803067 188.51148557 94.05357556 186.60683201 93.8591156 184.70217896 C93.71660391 183.30617531 93.71660391 183.30617531 93.57121319 181.88196957 C93.00971619 176.38399512 92.44629217 170.88622251 91.88107121 165.38862967 C91.52862236 161.95960803 91.17700735 158.53050114 90.82549667 155.10138321 C90.66345926 153.52283833 90.50102757 151.94433386 90.33815193 150.36587524 C90.1141267 148.194533 89.89138123 146.0230641 89.66920471 143.85153198 C89.56563902 142.84654179 89.56563902 142.84654179 89.45998108 141.82124877 C88.94583093 136.75412689 88.55192053 131.68348783 88.22825527 126.60084724 C87.50834567 121.11081841 85.07235361 116.90096657 80.96606445 113.24975586 C74.74137884 108.93058625 69.74246251 108.83628133 62.35816956 108.86405945 C60.74715006 108.85832113 60.74715006 108.85832113 59.10358471 108.85246688 C55.49853167 108.84213385 51.89363781 108.84612966 48.28857422 108.85009766 C45.70647026 108.84575137 43.12436759 108.84056851 40.54226685 108.83460999 C34.25301026 108.82186019 27.96379636 108.82006963 21.67452902 108.82241025 C16.5626617 108.82419319 11.45080734 108.82244428 6.33894157 108.81818581 C5.61143135 108.81759062 4.88392114 108.81699543 4.13436515 108.8163822 C2.65643621 108.81517045 1.17850727 108.81395632 -0.29942168 108.81273983 C-14.1595746 108.80186329 -28.01970319 108.80402737 -41.87985749 108.81012467 C-54.55960853 108.81529439 -67.23928277 108.80403716 -79.91901862 108.78502645 C-92.93921604 108.76565496 -105.95937711 108.75739081 -118.97958905 108.7611497 C-126.28920301 108.76306274 -133.59875159 108.76056422 -140.90835381 108.74643517 C-147.78084708 108.73328543 -154.65318396 108.73577202 -161.52567673 108.74884605 C-164.05003854 108.751218 -166.5744111 108.74845514 -169.0987606 108.74022293 C-172.5407064 108.72980644 -175.98213028 108.73781561 -179.42405701 108.75053406 C-180.42648876 108.74315977 -181.42892052 108.73578549 -182.46172899 108.72818774 C-190.58394507 108.79146705 -195.7306417 110.74381183 -201.09643555 117.12475586 Z " fill="#000000" transform="translate(314.096435546875,55.875244140625)"/>
<path d="M0 0 C4.76338293 2.99569075 7.21212432 5.55210707 9.31640625 10.87109375 C9.95499719 14.03919634 10.31900815 17.22484436 10.69140625 20.43359375 C13.0834755 38.14683432 19.89637873 50.87843509 34.31640625 61.87109375 C47.94260755 70.06685306 61.81168149 72.87511548 77.25390625 69.24609375 C92.61104192 65.33269238 102.80155332 57.09193748 111.31640625 43.87109375 C115.7038239 35.63791496 117.16860656 27.10705358 118.15380859 17.9375 C118.91033184 11.54063344 120.4343214 6.85143149 125.03515625 2.09375 C130.89255038 -1.72126328 136.45714557 -2.14788858 143.31640625 -1.12890625 C148.21263463 0.51776805 151.49459107 3.58611515 154.31640625 7.87109375 C159.61357578 19.09423351 155.94343466 35.51559328 151.9921875 46.90234375 C147.33519822 59.34286764 141.15545029 69.93642281 132.31640625 79.87109375 C131.63964844 80.64324219 130.96289062 81.41539062 130.265625 82.2109375 C115.21459218 98.33906871 93.1876669 108.24343058 71.26171875 109.18359375 C44.12258426 109.89762448 20.92170676 103.20709199 0.6875 84.203125 C-0.09496094 83.43355469 -0.87742188 82.66398437 -1.68359375 81.87109375 C-2.45574219 81.11183594 -3.22789062 80.35257812 -4.0234375 79.5703125 C-19.3764837 63.53490869 -27.39411235 41.34469273 -28.12109375 19.37109375 C-27.94935108 12.80753691 -26.78602792 8.09503317 -22.1875 3.31640625 C-16.09561482 -2.06146745 -7.52104301 -3.16387399 0 0 Z " fill="#000000" transform="translate(191.68359375,202.12890625)"/>
</svg>
